<?xml version="1.0" encoding="UTF-8" standalone="no"?>
<!DOCTYPE svg PUBLIC "-//W3C//DTD SVG 1.1//EN" "http://www.w3.org/Graphics/SVG/1.1/DTD/svg11.dtd">
<svg width="100%" height="100%" viewBox="0 0 756 166" version="1.1" xmlns="http://www.w3.org/2000/svg" xmlns:xlink="http://www.w3.org/1999/xlink" xml:space="preserve" xmlns:serif="http://www.serif.com/" style="fill-rule:evenodd;clip-rule:evenodd;stroke-linejoin:round;stroke-miterlimit:2;">
    <g transform="matrix(1,0,0,1,-2399.694997,-1607.138311)">
        <g transform="matrix(1,0,0,1,808.251049,963.928518)">
            <g transform="matrix(0.416098,0,0,1.00377,1143.832451,-461.791146)">
                <path d="M1383.093,1250.843C1382.749,1254.265 1379.471,1257.415 1373.262,1260.293C1367.053,1263.171 1358.774,1264.765 1348.425,1265.077C1328.762,1265.699 1305.133,1266.01 1277.536,1266.01C1249.939,1266.01 1224.585,1265.699 1201.473,1265.077C1191.124,1264.765 1182.845,1263.171 1176.636,1260.293C1170.426,1257.415 1167.149,1254.265 1166.804,1250.843C1165.769,1227.199 1165.252,1207.015 1165.252,1190.293C1165.252,1173.571 1165.424,1154.652 1165.769,1146.874C1165.769,1140.963 1159.905,1138.007 1148.177,1138.007L1101.607,1138.007C1094.363,1138.007 1088.499,1137.23 1084.014,1135.674C1079.53,1134.119 1077.029,1131.396 1076.511,1127.507C1075.994,1123.619 1075.735,1126.243 1075.735,1122.043C1075.735,1117.843 1075.994,1114.227 1076.511,1111.193C1077.029,1108.16 1079.788,1105.827 1084.79,1104.193C1089.792,1102.56 1095.225,1101.743 1101.09,1101.743C1145.934,1101.432 1206.647,1101.277 1283.228,1101.277C1359.809,1101.277 1414.657,1101.432 1447.773,1101.743C1453.638,1101.899 1459.071,1102.754 1464.073,1104.31C1469.074,1105.865 1471.834,1108.16 1472.352,1111.193C1472.869,1114.227 1473.128,1117.765 1473.128,1121.81C1473.128,1125.854 1472.955,1123.074 1472.61,1126.807C1471.575,1133.807 1463.124,1137.307 1447.256,1137.307L1400.686,1137.307C1388.958,1137.307 1383.093,1140.03 1383.093,1145.474C1384.128,1165.074 1384.646,1189.477 1384.646,1205.343C1384.646,1221.21 1384.128,1236.377 1383.093,1250.843Z" style="fill:rgb(242,128,170);fill-rule:nonzero;"/>
            </g>
            <g transform="matrix(0,0.412873,-1,0,3053.647722,19.613841)">
                <path d="M1511.418,1130.443L1511.418,1113.177C1511.418,1109.132 1513.574,1106.293 1517.886,1104.66C1522.198,1103.027 1533.754,1102.093 1552.554,1101.86C1571.355,1101.627 1618.355,1101.432 1656.301,1101.277C1694.246,1101.121 1736.159,1101.043 1782.038,1101.043L1875.177,1101.043C1883.456,1101.043 1891.132,1102.054 1898.203,1104.077C1905.275,1106.099 1908.811,1108.665 1908.811,1111.777L1908.811,1130.91C1908.811,1133.399 1907.948,1135.343 1906.224,1136.743C1906.224,1136.743 1905.189,1137.677 1903.119,1139.543C1902.774,1140.01 1901.567,1140.943 1899.497,1142.343L1895.357,1145.143C1863.276,1168.01 1826.193,1192.665 1784.108,1219.11C1779.969,1221.754 1778.503,1223.971 1779.71,1225.76C1780.917,1227.549 1784.108,1228.443 1789.282,1228.443L1888.113,1228.443C1895.357,1228.443 1900.963,1229.571 1904.93,1231.827C1908.897,1234.082 1910.88,1236.532 1910.88,1239.177L1910.88,1252.71C1910.88,1260.799 1903.291,1264.999 1888.113,1265.31C1842.924,1265.777 1787.04,1266.01 1720.463,1266.01C1653.886,1266.01 1600.763,1265.699 1561.092,1265.077C1543.499,1264.765 1530.65,1263.715 1522.543,1261.927C1514.437,1260.138 1510.383,1256.677 1510.383,1251.543L1510.383,1233.577C1510.383,1228.443 1513.833,1223.31 1520.732,1218.177C1556.608,1192.51 1594.036,1168.01 1633.016,1144.677C1636.121,1142.654 1636.638,1140.943 1634.568,1139.543C1632.499,1138.143 1628.532,1137.443 1622.667,1137.443L1535.738,1137.443C1528.838,1137.443 1523.06,1136.782 1518.403,1135.46C1513.746,1134.138 1511.418,1132.465 1511.418,1130.443Z" style="fill:rgb(242,128,170);fill-rule:nonzero;"/>
            </g>
            <g transform="matrix(0.412873,0,0,1,1180.472472,-457.63965)">
                <path d="M1966.764,1130.443L1966.764,1113.177C1966.764,1109.132 1968.92,1106.293 1973.232,1104.66C1977.544,1103.027 1989.1,1102.093 2007.9,1101.86C2026.7,1101.627 2055.073,1101.432 2093.019,1101.277C2130.964,1101.121 2172.877,1101.043 2218.756,1101.043L2311.895,1101.043C2320.174,1101.043 2327.849,1102.054 2334.921,1104.077C2341.993,1106.099 2345.529,1108.665 2345.529,1111.777L2345.529,1130.91C2345.529,1133.399 2344.666,1135.343 2342.941,1136.743C2342.941,1136.743 2341.907,1137.677 2339.837,1139.543C2339.492,1140.01 2338.284,1140.943 2336.215,1142.343L2332.075,1145.143C2299.994,1168.01 2262.911,1192.665 2220.826,1219.11C2216.686,1221.754 2215.22,1223.971 2216.428,1225.76C2217.635,1227.549 2220.826,1228.443 2226,1228.443L2324.831,1228.443C2332.075,1228.443 2337.681,1229.571 2341.648,1231.827C2345.615,1234.082 2347.598,1236.532 2347.598,1239.177L2347.598,1252.71C2347.598,1260.799 2340.009,1264.999 2324.831,1265.31C2279.641,1265.777 2223.758,1266.01 2157.181,1266.01C2090.604,1266.01 2037.48,1265.699 1997.81,1265.077C1980.217,1264.765 1967.367,1263.715 1959.261,1261.927C1951.154,1260.138 1947.101,1256.677 1947.101,1251.543L1947.101,1233.577C1947.101,1228.443 1950.551,1223.31 1957.45,1218.177C1993.326,1192.51 2030.754,1168.01 2069.734,1144.677C2072.839,1142.654 2073.356,1140.943 2071.286,1139.543C2069.217,1138.143 2065.25,1137.443 2059.385,1137.443L1991.083,1137.443C1984.184,1137.443 1978.406,1136.782 1973.749,1135.46C1969.092,1134.138 1966.764,1132.465 1966.764,1130.443Z" style="fill:rgb(242,128,170);fill-rule:nonzero;"/>
            </g>
            <g transform="matrix(-0.412873,0,0,1,3330.878611,-457.63965)">
                <path d="M2403.482,1130.443L2403.482,1113.177C2403.482,1109.132 2405.638,1106.293 2409.95,1104.66C2414.262,1103.027 2425.818,1102.093 2444.618,1101.86C2463.418,1101.627 2491.791,1101.432 2529.737,1101.277C2567.682,1101.121 2609.595,1101.043 2655.474,1101.043L2748.613,1101.043C2756.892,1101.043 2764.567,1102.054 2771.639,1104.077C2778.711,1106.099 2782.246,1108.665 2782.246,1111.777L2782.246,1130.91C2782.246,1133.399 2781.384,1135.343 2779.659,1136.743C2779.659,1136.743 2778.624,1137.677 2776.555,1139.543C2776.21,1140.01 2775.002,1140.943 2772.933,1142.343L2768.793,1145.143C2736.712,1168.01 2699.629,1192.665 2657.544,1219.11C2653.404,1221.754 2651.938,1223.971 2653.146,1225.76C2654.353,1227.549 2657.544,1228.443 2662.718,1228.443L2761.549,1228.443C2768.793,1228.443 2774.399,1229.571 2778.366,1231.827C2782.333,1234.082 2784.316,1236.532 2784.316,1239.177L2784.316,1252.71C2784.316,1260.799 2776.727,1264.999 2761.549,1265.31C2716.359,1265.777 2660.476,1266.01 2593.899,1266.01C2527.322,1266.01 2474.198,1265.699 2434.528,1265.077C2416.935,1264.765 2404.085,1263.715 2395.979,1261.927C2387.872,1260.138 2383.819,1256.677 2383.819,1251.543L2383.819,1233.577C2383.819,1228.443 2387.269,1223.31 2394.168,1218.177C2430.043,1192.51 2467.472,1168.01 2506.452,1144.677C2509.556,1142.654 2510.074,1140.943 2508.004,1139.543C2505.934,1138.143 2501.967,1137.443 2496.103,1137.443L2427.801,1137.443C2420.902,1137.443 2415.124,1136.782 2410.467,1135.46C2405.81,1134.138 2403.482,1132.465 2403.482,1130.443Z" style="fill:rgb(242,128,170);fill-rule:nonzero;"/>
            </g>
        </g>
    </g>
</svg>
